<svg width="178" height="110" viewBox="0 0 178 110" fill="none" xmlns="http://www.w3.org/2000/svg">
<path fill-rule="evenodd" clip-rule="evenodd" d="M29.653 58.353L29.588 60.504C28.0195 59.563 26.3146 58.8707 24.534 58.452C22.5189 57.948 20.4491 57.6961 18.372 57.702C15.5024 57.7151 12.7047 58.6014 10.351 60.243C7.83074 61.9365 5.76078 64.2182 4.31999 66.891C2.85425 69.4986 2.07972 72.4377 2.06999 75.429C2.03651 78.1766 2.78269 80.8773 4.22199 83.218C5.65083 85.5375 7.67867 87.4289 10.092 88.693C12.5788 90.021 15.3589 90.7045 18.178 90.681C20.1084 90.6487 22.0222 90.3189 23.852 89.703C25.7217 89.1334 27.5004 88.2993 29.134 87.226V88.138C29.206 90.4963 28.6309 92.8294 27.471 94.884C26.3183 96.9047 24.199 97.915 21.113 97.915C19.5262 97.9479 17.9673 97.4943 16.646 96.615C16.0401 96.2326 15.5404 95.7036 15.1929 95.0771C14.8455 94.4505 14.6615 93.7465 14.658 93.03L2.59199 89.053C2.52089 92.6778 3.38536 96.2597 5.10199 99.453C6.71502 102.412 9.1343 104.853 12.079 106.493C15.2264 108.208 18.7664 109.073 22.35 109.003C26.9153 109.003 30.5017 107.884 33.109 105.646C35.5347 103.669 37.3725 101.065 38.423 98.117C39.2727 95.7703 39.7672 93.3098 39.89 90.817L40.281 58.357L29.653 58.353ZM19.742 80.843C18.9574 80.857 18.1794 80.6975 17.4635 80.376C16.7477 80.0544 16.1117 79.5788 15.601 78.983C14.4673 77.676 13.8728 75.9869 13.938 74.258C13.8689 72.5381 14.4644 70.8576 15.601 69.565C16.1376 68.9688 16.7976 68.4967 17.5352 68.1815C18.2728 67.8663 19.0702 67.7157 19.872 67.74C20.7069 67.7211 21.5368 67.8732 22.3107 68.1871C23.0846 68.5009 23.7861 68.9699 24.372 69.565C24.9713 70.161 25.4424 70.8731 25.7564 71.6578C26.0704 72.4425 26.2207 73.2831 26.198 74.128C26.21 75.8803 25.5305 77.5666 24.307 78.821C23.7346 79.4644 23.031 79.9777 22.2435 80.3263C21.4561 80.6749 20.6031 80.8508 19.742 80.842V80.843ZM65.256 58.223L65.191 73.606V73.543C65.2685 75.453 64.7315 77.3376 63.659 78.92C63.1967 79.5205 62.6139 80.0176 61.9481 80.3795C61.2823 80.7415 60.5481 80.9601 59.7928 81.0215C59.0375 81.0829 58.2777 80.9857 57.5621 80.736C56.8466 80.4864 56.1912 80.0899 55.638 79.572C54.6786 78.3907 54.2011 76.8905 54.301 75.372L54.366 58.099H42.301L42.101 76.023C42.0137 81.7563 43.1007 86.1127 45.362 89.092C47.6233 92.0713 50.9923 93.5593 55.469 93.556C57.3486 93.5709 59.2117 93.2049 60.946 92.48C62.5487 91.8293 63.9776 90.8137 65.119 89.514V92.708H77.509V58.223H65.256ZM100.598 57.962C99.0669 57.9721 97.5515 58.2707 96.131 58.842C94.6591 59.4113 93.3008 60.2389 92.12 61.286V58.286H79.992V93.027H92.121V80.515C92.295 76.7343 92.9576 74.0077 94.109 72.335C94.6953 71.5017 95.486 70.8331 96.4053 70.3936C97.3245 69.954 98.3413 69.7582 99.358 69.825C100.366 69.7937 101.366 70.016 102.266 70.4715C103.167 70.927 103.938 71.6011 104.51 72.432L109.01 62.332C107.945 60.996 106.612 59.8972 105.098 59.106C103.712 58.3688 102.168 57.9774 100.598 57.965V57.962ZM132.681 58.223L132.616 73.606V73.543C132.693 75.453 132.157 77.3376 131.084 78.92C130.622 79.5203 130.039 80.0173 129.373 80.3791C128.708 80.741 127.973 80.9596 127.218 81.021C126.463 81.0824 125.703 80.9852 124.988 80.7357C124.273 80.4861 123.617 80.0897 123.064 79.572C122.105 78.3906 121.627 76.8905 121.727 75.372L121.792 58.099H109.727L109.527 76.024C109.439 81.7573 110.526 86.1137 112.788 89.093C115.05 92.0723 118.419 93.56 122.894 93.556C124.774 93.5712 126.637 93.2055 128.371 92.481C129.974 91.8304 131.403 90.8148 132.544 89.515V92.709H144.934V58.223H132.681ZM154.781 55.823C155.424 55.8348 156.062 55.7015 156.646 55.433C157.231 55.1645 157.747 54.7676 158.157 54.272C159.053 53.2369 159.531 51.9055 159.5 50.537C159.55 49.9334 159.468 49.3262 159.259 48.7575C159.051 48.1888 158.721 47.6724 158.293 47.2441C157.865 46.8159 157.348 46.486 156.78 46.2776C156.211 46.0691 155.604 45.987 155 46.037C154.351 46.0072 153.702 46.1079 153.092 46.3331C152.482 46.5582 151.923 46.9033 151.449 47.348C151.001 47.792 150.651 48.3242 150.419 48.9109C150.188 49.4976 150.082 50.1259 150.106 50.756C150.089 51.4177 150.203 52.0762 150.441 52.6938C150.679 53.3115 151.036 53.8763 151.492 54.356C151.905 54.8194 152.413 55.1896 152.98 55.442C153.547 55.6944 154.162 55.8233 154.783 55.82L154.781 55.823ZM145.595 109.004C149.681 109.004 152.887 107.983 155.213 105.94C157.722 103.576 159.432 100.489 160.104 97.108C161.128 92.3456 161.577 87.4774 161.441 82.608L161.311 57.708L148.335 58.099L148.205 80.326V82.216C148.161 85.3013 148.063 87.6913 147.912 89.386C147.804 90.914 147.406 92.4075 146.738 93.786C146.456 94.3745 146.041 94.8897 145.526 95.2911C145.011 95.6926 144.411 95.9695 143.771 96.1C143.405 96.1695 143.034 96.213 142.662 96.23C141.822 96.241 141.008 95.9391 140.379 95.383L136.336 106.529C138.639 108.18 141.726 109.005 145.596 109.006L145.595 109.004ZM170.677 56.204C171.313 56.2186 171.944 56.0966 172.529 55.8463C173.113 55.596 173.637 55.2232 174.065 54.753C174.981 53.7507 175.468 52.4291 175.42 51.072C175.447 50.4749 175.35 49.8787 175.135 49.3211C174.92 48.7634 174.592 48.2564 174.171 47.832C173.733 47.4195 173.217 47.0991 172.654 46.8897C172.09 46.6803 171.49 46.5862 170.889 46.613C169.529 46.5836 168.207 47.0637 167.183 47.959C166.69 48.3684 166.295 48.8833 166.028 49.4657C165.76 50.0482 165.627 50.6832 165.638 51.324C165.638 52.1928 165.896 53.0421 166.379 53.764C166.858 54.5074 167.512 55.1215 168.285 55.552C169.012 55.9734 169.837 56.1977 170.678 56.203L170.677 56.204ZM164.701 92.834H177.286V58.288H163.654L164.701 92.834Z" fill="white"/>
<path fill-rule="evenodd" clip-rule="evenodd" d="M24.971 40.362L13.263 38.029L11.814 44.356L18.114 45.556C17.874 46.2375 17.3883 46.8048 16.752 47.147C16.0551 47.5994 15.2824 47.9226 14.471 48.101C14.1333 48.1701 13.7896 48.2056 13.445 48.207C12.0822 48.2092 10.7686 47.6979 9.76598 46.775C9.06545 46.1894 8.50261 45.4565 8.11752 44.6286C7.73243 43.8007 7.53456 42.8981 7.53798 41.985C7.53088 40.6154 7.97159 39.281 8.79298 38.185C9.55626 37.0915 10.6954 36.3173 11.993 36.01C12.5158 35.8943 13.0495 35.835 13.585 35.833C14.4561 35.8331 15.3217 35.9704 16.15 36.24C16.9051 36.4648 17.5997 36.8572 18.182 37.388L21.931 31.588C20.8502 30.6535 19.5756 29.9704 18.199 29.588C16.6675 29.127 15.0763 28.8948 13.477 28.899C12.4916 28.9009 11.5086 28.9956 10.541 29.182C8.52665 29.6117 6.64574 30.5211 5.05798 31.833C3.4844 33.1332 2.21572 34.7633 1.34169 36.6079C0.467663 38.4526 0.009626 40.4668 -1.97326e-05 42.508C-0.00515747 43.3745 0.0779373 44.2393 0.24798 45.089C0.682693 47.136 1.59786 49.0503 2.91798 50.674C4.22123 52.3009 5.8705 53.6171 7.74598 54.527C9.58277 55.4347 11.6041 55.9066 13.653 55.906C14.5211 55.9014 15.3865 55.8066 16.235 55.623C18.0132 55.2528 19.6756 54.4587 21.081 53.308C22.5018 52.1634 23.6547 50.7217 24.459 49.084C25.2528 47.5166 25.6705 45.7859 25.679 44.029C25.6946 42.7683 25.4537 41.5177 24.971 40.353V40.362ZM37.457 36.827C36.6265 36.8325 35.8045 36.9943 35.034 37.304C34.2359 37.6126 33.4993 38.0614 32.859 38.629V37.003H26.28V55.843H32.859V49.056C32.8201 47.5079 33.1925 45.9773 33.938 44.62C34.2561 44.1682 34.685 43.8057 35.1836 43.5674C35.6821 43.329 36.2336 43.2228 36.785 43.259C37.3318 43.2423 37.874 43.363 38.3621 43.61C38.8502 43.8571 39.2686 44.2225 39.579 44.673L42.02 39.194C41.4422 38.4693 40.7194 37.8732 39.898 37.444C39.1463 37.0442 38.3093 36.8319 37.458 36.825L37.457 36.827ZM61.332 55.844L60.523 37.074H54.647V38.594C54.1028 38.0202 53.43 37.5842 52.684 37.322C51.8523 37.0124 50.9714 36.8565 50.084 36.862C48.4554 36.8473 46.8537 37.2772 45.4514 38.1054C44.0491 38.9336 42.8994 40.1287 42.126 41.562C41.3191 43.0474 40.9059 44.7147 40.926 46.405C40.909 48.0795 41.3101 49.7317 42.093 51.212C42.8259 52.6237 43.9101 53.8229 45.241 54.694C46.5201 55.5419 48.0223 55.9909 49.557 55.984C50.5447 55.9845 51.5253 55.8171 52.457 55.489C53.3211 55.2033 54.1247 54.7598 54.827 54.181L54.862 55.842H61.333L61.332 55.844ZM50.756 50.153C50.1447 50.1466 49.5484 49.9624 49.04 49.623C48.4839 49.2676 48.0227 48.7824 47.696 48.209C47.367 47.6657 47.1899 47.0441 47.183 46.409C47.1799 45.915 47.2824 45.426 47.4837 44.9748C47.6849 44.5237 47.9803 44.1207 48.35 43.793C49.0772 43.0812 50.0564 42.6858 51.074 42.693C51.5122 42.6814 51.948 42.762 52.3531 42.9294C52.7583 43.0969 53.1238 43.3474 53.426 43.665C53.7352 43.986 53.9773 44.3655 54.1382 44.7812C54.2991 45.1968 54.3755 45.6404 54.363 46.086C54.3645 46.7838 54.1927 47.471 53.863 48.086C53.5489 48.6915 53.0865 49.2075 52.519 49.586C51.9998 49.9486 51.3832 50.1458 50.75 50.152L50.756 50.153ZM74.277 36.614C73.2336 36.6137 72.2001 36.8175 71.235 37.214C70.1839 37.6052 69.2042 38.1663 68.335 38.875L68.087 37.002L62.322 36.967V57.811H69.322L69.004 54.571C70.3505 55.2513 71.8474 55.5795 73.355 55.525C74.887 55.5548 76.3878 55.0902 77.635 54.2C78.8921 53.2771 79.8759 52.031 80.482 50.594C81.1657 49.0167 81.5092 47.313 81.49 45.594C81.5824 43.3193 80.8963 41.0811 79.545 39.249C78.9243 38.4386 78.1271 37.7803 77.214 37.324C76.3008 36.8678 75.2957 36.6257 74.275 36.616L74.277 36.614ZM72.651 49.764C72.1484 49.7686 71.6499 49.6724 71.1852 49.481C70.7204 49.2897 70.2987 49.0071 69.945 48.65C69.5801 48.3157 69.2893 47.9087 69.0912 47.4553C68.8931 47.0018 68.7922 46.5118 68.795 46.017C68.7836 45.5684 68.8676 45.1225 69.0414 44.7088C69.2151 44.2951 69.4747 43.9229 69.803 43.617C70.486 42.9766 71.3952 42.6335 72.331 42.663C72.7969 42.6439 73.2616 42.7238 73.6944 42.8974C74.1272 43.0709 74.5183 43.3343 74.842 43.67C75.5003 44.3986 75.8436 45.3581 75.797 46.339C75.8477 47.2569 75.5364 48.1581 74.93 48.849C74.6365 49.1545 74.2815 49.3941 73.8884 49.552C73.4954 49.7099 73.0732 49.7825 72.65 49.765L72.651 49.764ZM102.751 55.845L102.68 45.276C102.781 42.9803 102.088 40.7199 100.717 38.876C100.098 38.1041 99.3074 37.4879 98.4077 37.0767C97.508 36.6655 96.5245 36.4707 95.536 36.508C94.3531 36.5139 93.1846 36.7666 92.105 37.25C91.0537 37.6881 90.1118 38.3521 89.346 39.195L89.169 27.353H82.449L82.943 55.702L89.593 55.808L89.451 45.379C89.6485 44.6157 90.0986 43.9417 90.7279 43.4667C91.3572 42.9918 92.1288 42.7437 92.917 42.763C93.3539 42.7394 93.7912 42.8021 94.2039 42.9476C94.6165 43.0932 94.9965 43.3186 95.322 43.611C95.6241 43.9166 95.8588 44.2821 96.011 44.6839C96.1633 45.0857 96.2297 45.5149 96.206 45.944V55.844L102.751 55.845ZM103.851 55.739H110.678V38.074C109.137 38.11 107.595 38.0096 106.072 37.774C105.133 37.6087 104.203 37.3961 103.286 37.137L103.851 55.739ZM121.217 56.092C122.723 56.0679 124.205 55.7078 125.555 55.0381C126.904 54.3684 128.087 53.406 129.017 52.221C129.859 51.1724 130.326 49.8719 130.343 48.527L124.472 47.961C124.222 48.5185 123.809 48.9869 123.287 49.304C122.767 49.6473 122.159 49.8315 121.536 49.834C120.903 49.8282 120.284 49.6446 119.75 49.304C119.181 48.9608 118.702 48.4883 118.35 47.925C118.012 47.4104 117.827 46.8098 117.819 46.194C117.824 45.7399 117.926 45.2922 118.118 44.8807C118.31 44.4692 118.588 44.1035 118.933 43.808C119.606 43.1411 120.515 42.7663 121.462 42.765C122.132 42.7609 122.785 42.9785 123.319 43.384C123.87 43.7928 124.274 44.3698 124.469 45.028L130.411 44.498C130.403 43.0831 129.916 41.7126 129.031 40.609C128.08 39.3821 126.849 38.4004 125.441 37.746C124.037 37.0556 122.495 36.6931 120.931 36.686C119.27 36.6694 117.637 37.1094 116.209 37.958C114.781 38.8045 113.601 40.0104 112.785 41.4555C111.969 42.9006 111.546 44.5344 111.558 46.194C111.551 47.9147 112.003 49.6062 112.867 51.094C113.715 52.59 114.932 53.8438 116.402 54.736C117.846 55.6316 119.513 56.1032 121.212 56.097L121.217 56.092ZM146.542 39.584C145.422 38.6246 144.148 37.8597 142.775 37.321C141.465 36.7926 140.067 36.5168 138.654 36.508C137.309 36.503 135.979 36.7989 134.763 37.374C133.617 37.8891 132.61 38.6708 131.828 39.654C131.144 40.4854 130.759 41.5219 130.733 42.598C130.707 43.6741 131.043 44.7278 131.686 45.591C132.338 46.5034 133.206 47.2402 134.212 47.736C135.247 48.2647 136.393 48.539 137.555 48.536C137.768 48.5406 137.981 48.5289 138.192 48.501C138.752 48.4746 139.313 48.5343 139.855 48.678C139.994 48.7065 140.119 48.7814 140.21 48.8905C140.301 48.9995 140.352 49.1361 140.355 49.278C140.355 49.6313 140.102 49.9313 139.595 50.178C139.012 50.4411 138.377 50.568 137.738 50.549C136.977 50.548 136.222 50.4105 135.51 50.143C134.797 49.8829 134.137 49.4937 133.565 48.995L129.993 53.023C130.91 54.0538 132.063 54.848 133.353 55.338C134.768 55.9153 136.282 56.2095 137.81 56.204C139.319 56.2195 140.813 55.8934 142.178 55.25C143.436 54.6739 144.53 53.793 145.362 52.687C146.132 51.6761 146.548 50.4405 146.547 49.17C146.574 48.3959 146.403 47.6277 146.048 46.939C145.694 46.2502 145.169 45.6639 144.523 45.236C142.837 44.2008 140.874 43.7073 138.899 43.822C137.248 43.822 136.423 43.5273 136.423 42.938C136.423 42.608 136.653 42.337 137.113 42.125C137.667 41.8948 138.264 41.7864 138.864 41.807C139.671 41.8157 140.471 41.9528 141.234 42.213C142.215 42.5545 143.163 42.9863 144.064 43.503L146.542 39.584Z" fill="white"/>
<path fill-rule="evenodd" clip-rule="evenodd" d="M103.559 36.007C103.559 36.007 95.0439 -1.227 134.273 1C134.273 1 137.667 1.176 139.711 0C139.711 0 139.06 0.782 139.511 5C139.51 5.001 142.963 43.327 103.559 36.007Z" fill="white"/>
</svg>
